<?xml version="1.0" encoding="UTF-8"?>
<svg width="150px" height="81px" viewBox="0 0 150 81" version="1.1" xmlns="http://www.w3.org/2000/svg" xmlns:xlink="http://www.w3.org/1999/xlink">
    <!-- Generator: Sketch 52.5 (67469) - http://www.bohemiancoding.com/sketch -->
    <title>box</title>
    <desc>Created with Sketch.</desc>
    <g id="Assets" stroke="none" stroke-width="1" fill="none" fill-rule="evenodd">
        <g transform="translate(-6916.000000, -90.000000)" fill="#00AEF0" id="box">
            <g transform="translate(6916.000000, 90.000000)">
                <path d="M76.306441,24.8947598 C65.2716157,24.8947598 55.7679039,31.5687773 51.6150655,41.0911572 C47.4618996,31.5687773 37.9581878,24.8947598 26.92369,24.8947598 C21.7755459,24.8947598 16.9611354,26.3482533 12.8669214,28.8645197 L12.8669214,6.71168122 C12.8669214,3.15851528 9.98646288,0.278384279 6.43362445,0.278384279 C2.88078603,0.278384279 0,3.15851528 0,6.71200873 L0,51.8181223 C0,66.6638646 12.0779476,78.7414847 26.9233624,78.7414847 C37.9581878,78.7414847 47.4618996,72.0674672 51.614738,62.5450873 C55.7679039,72.0677948 65.2716157,78.7414847 76.3061135,78.7414847 C91.1515284,78.7414847 103.229476,66.6635371 103.229476,51.8181223 C103.230131,36.9727074 91.1521834,24.8947598 76.306441,24.8947598 Z M26.9233624,65.8745633 C19.1724891,65.8745633 12.8665939,59.5689956 12.8665939,51.8177948 C12.8665939,44.0672489 19.1724891,37.7613537 26.9233624,37.7613537 C34.6742358,37.7613537 40.9798035,44.0669214 40.9798035,51.8177948 C40.980131,59.5689956 34.6742358,65.8745633 26.9233624,65.8745633 Z M76.306441,65.8745633 C68.5555677,65.8745633 62.25,59.5689956 62.25,51.8177948 C62.25,44.0672489 68.5555677,37.7613537 76.306441,37.7613537 C84.0573144,37.7613537 90.3628821,44.0669214 90.3628821,51.8177948 C90.3632096,59.5689956 84.0573144,65.8745633 76.306441,65.8745633 Z" id="Shape" fill-rule="nonzero"></path>
                <path d="M132.60786,51.5512009 L148.391266,33.4997817 C150.730022,30.825 150.457533,26.7605895 147.782751,24.4218341 C145.107969,22.0830786 141.043559,22.3555677 138.704803,25.0303493 L124.062118,41.7772926 L109.419432,25.0303493 C107.080677,22.3555677 103.016594,22.0834061 100.341485,24.4218341 C97.6667031,26.7605895 97.394214,30.825 99.7329694,33.4997817 L115.516376,51.5512009 L99.7329694,69.6026201 C97.394214,72.2774017 97.6667031,76.3418122 100.341485,78.6805677 C101.561463,79.7475983 103.070633,80.2706332 104.573581,80.2706332 C106.365066,80.2706332 108.147707,79.5265284 109.419432,78.0720524 L124.062118,61.3251092 L138.704803,78.0720524 C139.976856,79.5268559 141.758843,80.2706332 143.550655,80.2706332 C145.053275,80.2706332 146.562445,79.7469432 147.782751,78.6805677 C150.457533,76.3418122 150.730022,72.2774017 148.391266,69.6026201 L132.60786,51.5512009 Z" id="Path"></path>
            </g>
        </g>
    </g>
</svg>