<?xml version="1.0" encoding="UTF-8"?>
<svg width="48px" height="48px" viewBox="0 0 48 48" version="1.1" xmlns="http://www.w3.org/2000/svg" xmlns:xlink="http://www.w3.org/1999/xlink">
    <!-- Generator: Sketch 52.5 (67469) - http://www.bohemiancoding.com/sketch -->
    <title>C-logo-white</title>
    <desc>Created with Sketch.</desc>
    <g id="Page-1" stroke="none" stroke-width="1" fill="none" fill-rule="evenodd">
        <g id="C-logo-white" transform="translate(-3.000000, -16.000000)" fill="#FFFFFF">
            <path d="M47.3876953,28.6430664 L46.1181641,28.8334961 L43.8012695,20.4863281 C41.1775585,19.8304004 38.7972112,19.5024414 36.6601562,19.5024414 C31.4762111,19.5024414 27.4031724,21.3115053 24.440918,24.9296875 C21.4786636,28.5478697 19.9975586,33.2450883 19.9975586,39.0214844 C19.9975586,45.1999007 21.69025,50.1298644 25.0756836,53.8115234 C28.4611172,57.4931825 33.1477565,59.3339844 39.1357422,59.3339844 C42.5000168,59.3339844 46.0440895,58.6886458 49.7680664,57.3979492 L50.1171875,58.8261719 C45.9488724,61.7037904 41.2304951,63.1425781 35.9619141,63.1425781 C29.12757,63.1425781 23.6157436,61.0584518 19.4262695,56.8901367 C15.2367955,52.7218216 13.1420898,47.2311539 13.1420898,40.4179688 C13.1420898,33.1604455 15.4483819,27.415874 20.0610352,23.184082 C24.6736884,18.95229 30.7039016,16.8364258 38.1518555,16.8364258 C41.7277197,16.8364258 45.3881649,17.270178 49.1333008,18.1376953 L49.3554688,18.3916016 L47.3876953,28.6430664 Z" id="C"></path>
            <path d="M37.3876953,28.6430664 L36.1181641,28.8334961 L33.8012695,20.4863281 C31.1775585,19.8304004 28.7972112,19.5024414 26.6601562,19.5024414 C21.4762111,19.5024414 17.4031724,21.3115053 14.440918,24.9296875 C11.4786636,28.5478697 9.99755859,33.2450883 9.99755859,39.0214844 C9.99755859,45.1999007 11.69025,50.1298644 15.0756836,53.8115234 C18.4611172,57.4931825 23.1477565,59.3339844 29.1357422,59.3339844 C32.5000168,59.3339844 36.0440895,58.6886458 39.7680664,57.3979492 L40.1171875,58.8261719 C35.9488724,61.7037904 31.2304951,63.1425781 25.9619141,63.1425781 C19.12757,63.1425781 13.6157436,61.0584518 9.42626953,56.8901367 C5.23679546,52.7218216 3.14208984,47.2311539 3.14208984,40.4179688 C3.14208984,33.1604455 5.44838188,27.415874 10.0610352,23.184082 C14.6736884,18.95229 20.7039016,16.8364258 28.1518555,16.8364258 C31.7277197,16.8364258 35.3881649,17.270178 39.1333008,18.1376953 L39.3554688,18.3916016 L37.3876953,28.6430664 Z" id="C" transform="translate(21.629639, 39.989502) scale(-1, 1) translate(-21.629639, -39.989502) "></path>
        </g>
    </g>
</svg>