<?xml version="1.0" encoding="UTF-8"?>
<svg width="50px" height="52px" viewBox="0 0 50 52" version="1.1" xmlns="http://www.w3.org/2000/svg" xmlns:xlink="http://www.w3.org/1999/xlink">
    <!-- Generator: Sketch 50.2 (55047) - http://www.bohemiancoding.com/sketch -->
    <title>CC-logo-black</title>
    <desc>Created with Sketch.</desc>
    <defs></defs>
    <g id="Page-1" stroke="none" stroke-width="1" fill="none" fill-rule="evenodd">
        <g id="CC-logo-black" fill="#000000">
            <path d="M37.4375,32.03125 L37.4375,34.0625 C33.9374825,37.9583528 30.723973,41.1718623 27.796875,43.703125 C24.869777,46.2343877 22.0104306,48.1822848 19.21875,49.546875 C16.4270694,50.9114652 13.7291797,51.59375 11.125,51.59375 C8.87498875,51.59375 6.94271641,51.1458378 5.328125,50.25 C3.71353359,49.3541622 2.49479578,48.0468836 1.671875,46.328125 C0.848954219,44.6093664 0.4375,42.5729284 0.4375,40.21875 C0.4375,38.3645741 0.734372031,36.401052 1.328125,34.328125 C1.92187797,32.255198 2.78124437,30.1614689 3.90625,28.046875 C5.03125563,25.9322811 6.41145016,23.7500113 8.046875,21.5 C9.68229984,19.2499887 11.6041556,16.8854291 13.8125,14.40625 C16.1041781,11.8437372 18.3645722,9.63021766 20.59375,7.765625 C22.8229278,5.90103234 24.8437409,4.43750531 26.65625,3.375 C28.4687591,2.31249469 30.1510339,1.52083594 31.703125,1 C33.2552161,0.479164063 34.5416616,0.21875 35.5625,0.21875 C36.6041719,0.21875 37.4895797,0.4687475 38.21875,0.96875 C38.9479203,1.4687525 39.5104147,2.19791188 39.90625,3.15625 C40.3020853,4.11458812 40.5,5.21874375 40.5,6.46875 C40.5,8.82292844 39.6979247,11.4426939 38.09375,14.328125 C36.4895753,17.2135561 34.4895953,19.9999866 32.09375,22.6875 C29.6979047,25.3750134 27.4114692,27.5676998 25.234375,29.265625 C23.0572808,30.9635502 21.4895881,31.8125 20.53125,31.8125 C19.8854134,31.8125 19.2864611,31.5572942 18.734375,31.046875 C18.1822889,30.5364558 17.90625,29.9583366 17.90625,29.3125 C17.90625,28.1249941 18.536452,26.6875084 19.796875,25 C21.057298,23.3124916 22.4322842,21.765632 23.921875,20.359375 C25.4114658,18.953118 26.3020819,18.25 26.59375,18.25 C26.7395841,18.25 26.8125,18.3124994 26.8125,18.4375 C26.8125,18.6250009 26.7031261,18.9479144 26.484375,19.40625 C26.2656239,19.8645856 26.15625,20.1458328 26.15625,20.25 C26.15625,20.4166675 26.2187494,20.5 26.34375,20.5 C26.6979184,20.5 27.7187416,19.5520928 29.40625,17.65625 C31.0937584,15.7604072 32.640618,13.6718864 34.046875,11.390625 C35.453132,9.10936359 36.15625,7.23959062 36.15625,5.78125 C36.15625,5.17708031 36.026043,4.71354328 35.765625,4.390625 C35.505207,4.06770672 35.1145859,3.90625 34.59375,3.90625 C33.1354094,3.90625 30.9218898,5.08852984 27.953125,7.453125 C24.9843602,9.81772016 21.9427239,12.8281067 18.828125,16.484375 C15.7135261,20.1406433 13.1145938,23.9166472 11.03125,27.8125 C8.94790625,31.7083528 7.90625,35.1354019 7.90625,38.09375 C7.90625,39.8020919 8.16145578,41.2291609 8.671875,42.375 C9.18229422,43.5208391 9.93228672,44.4062469 10.921875,45.03125 C11.9114633,45.6562531 13.1041597,45.96875 14.5,45.96875 C17.5208484,45.96875 20.9478975,44.7916784 24.78125,42.4375 C28.6146025,40.0833216 32.8333103,36.6146063 37.4375,32.03125 Z" id="C-Copy-3"></path>
            <path d="M46.4375,32.03125 L46.4375,34.0625 C42.9374825,37.9583528 39.723973,41.1718623 36.796875,43.703125 C33.869777,46.2343877 31.0104306,48.1822848 28.21875,49.546875 C25.4270694,50.9114652 22.7291797,51.59375 20.125,51.59375 C17.8749887,51.59375 15.9427164,51.1458378 14.328125,50.25 C12.7135336,49.3541622 11.4947958,48.0468836 10.671875,46.328125 C9.84895422,44.6093664 9.4375,42.5729284 9.4375,40.21875 C9.4375,38.3645741 9.73437203,36.401052 10.328125,34.328125 C10.921878,32.255198 11.7812444,30.1614689 12.90625,28.046875 C14.0312556,25.9322811 15.4114502,23.7500113 17.046875,21.5 C18.6822998,19.2499887 20.6041556,16.8854291 22.8125,14.40625 C25.1041781,11.8437372 27.3645722,9.63021766 29.59375,7.765625 C31.8229278,5.90103234 33.8437409,4.43750531 35.65625,3.375 C37.4687591,2.31249469 39.1510339,1.52083594 40.703125,1 C42.2552161,0.479164063 43.5416616,0.21875 44.5625,0.21875 C45.6041719,0.21875 46.4895797,0.4687475 47.21875,0.96875 C47.9479203,1.4687525 48.5104147,2.19791188 48.90625,3.15625 C49.3020853,4.11458812 49.5,5.21874375 49.5,6.46875 C49.5,8.82292844 48.6979247,11.4426939 47.09375,14.328125 C45.4895753,17.2135561 43.4895953,19.9999866 41.09375,22.6875 C38.6979047,25.3750134 36.4114692,27.5676998 34.234375,29.265625 C32.0572808,30.9635502 30.4895881,31.8125 29.53125,31.8125 C28.8854134,31.8125 28.2864611,31.5572942 27.734375,31.046875 C27.1822889,30.5364558 26.90625,29.9583366 26.90625,29.3125 C26.90625,28.1249941 27.536452,26.6875084 28.796875,25 C30.057298,23.3124916 31.4322842,21.765632 32.921875,20.359375 C34.4114658,18.953118 35.3020819,18.25 35.59375,18.25 C35.7395841,18.25 35.8125,18.3124994 35.8125,18.4375 C35.8125,18.6250009 35.7031261,18.9479144 35.484375,19.40625 C35.2656239,19.8645856 35.15625,20.1458328 35.15625,20.25 C35.15625,20.4166675 35.2187494,20.5 35.34375,20.5 C35.6979184,20.5 36.7187416,19.5520928 38.40625,17.65625 C40.0937584,15.7604072 41.640618,13.6718864 43.046875,11.390625 C44.453132,9.10936359 45.15625,7.23959062 45.15625,5.78125 C45.15625,5.17708031 45.026043,4.71354328 44.765625,4.390625 C44.505207,4.06770672 44.1145859,3.90625 43.59375,3.90625 C42.1354094,3.90625 39.9218898,5.08852984 36.953125,7.453125 C33.9843602,9.81772016 30.9427239,12.8281067 27.828125,16.484375 C24.7135261,20.1406433 22.1145938,23.9166472 20.03125,27.8125 C17.9479062,31.7083528 16.90625,35.1354019 16.90625,38.09375 C16.90625,39.8020919 17.1614558,41.2291609 17.671875,42.375 C18.1822942,43.5208391 18.9322867,44.4062469 19.921875,45.03125 C20.9114633,45.6562531 22.1041597,45.96875 23.5,45.96875 C26.5208484,45.96875 29.9478975,44.7916784 33.78125,42.4375 C37.6146025,40.0833216 41.8333103,36.6146063 46.4375,32.03125 Z" id="C-Copy-4" transform="translate(29.468750, 25.906250) scale(-1, 1) translate(-29.468750, -25.906250) "></path>
        </g>
    </g>
</svg>