<?xml version="1.0" encoding="UTF-8"?>
<svg width="150px" height="132px" viewBox="0 0 150 132" version="1.1" xmlns="http://www.w3.org/2000/svg" xmlns:xlink="http://www.w3.org/1999/xlink">
    <!-- Generator: Sketch 52.5 (67469) - http://www.bohemiancoding.com/sketch -->
    <title>drive</title>
    <desc>Created with Sketch.</desc>
    <g id="Assets" stroke="none" stroke-width="1" fill="none" fill-rule="evenodd">
        <g transform="translate(-6287.000000, -56.000000)" id="drive">
            <g transform="translate(6287.000000, 56.000000)">
                <polygon id="Path" fill="#28B446" points="48.6008789 88.5770508 47.3469727 113.456836 24.2323242 131.018555 0 88.3004883 50.5669922 0.231445312 74.2423828 16.4824219 75.0228516 42.824707 74.7993164 42.9533203"></polygon>
                <polygon id="Path" fill="#219B38" points="50.5669922 0.231445312 64.9564453 60.0949219 75.0228516 42.824707 74.2423828 8.14863281"></polygon>
                <polygon id="Path" fill="#FFD837" points="99.4291992 0.231445312 150 88.3004883 122.72959 102.092871 101.133984 88.4329102 101.133984 88.3004883 75.0228516 42.824707 50.5669922 0.231445312"></polygon>
                <polygon id="Path" fill="#518EF8" points="150 88.3004883 125.78291 130.741992 24.2323242 131.018555 48.6008789 88.5770508 101.133984 88.4329102"></polygon>
                <polygon id="Path" fill="#3A5BBC" points="24.2323242 131.018555 66.7233398 88.5272461 48.6008789 88.5770508"></polygon>
                <polygon id="Path" fill="#FBBB00" points="150 88.3004883 94.5585938 76.8486328 101.133984 88.4329102"></polygon>
            </g>
        </g>
    </g>
</svg>