<?xml version="1.0" encoding="UTF-8"?>
<svg width="21px" height="48px" viewBox="0 0 21 48" version="1.1" xmlns="http://www.w3.org/2000/svg" xmlns:xlink="http://www.w3.org/1999/xlink">
    <!-- Generator: Sketch 52.5 (67469) - http://www.bohemiancoding.com/sketch -->
    <title>Return to top mouse icon</title>
    <desc>Created with Sketch.</desc>
    <g id="Mockups" stroke="none" stroke-width="1" fill="none" fill-rule="evenodd">
        <g id="Desktop-Homepage---Hi-Fi---2nd-iteration" transform="translate(-502.000000, -2095.000000)" fill="#2E3E4D" fill-rule="nonzero">
            <g id="Return-to-top-mouse-icon" transform="translate(512.500000, 2118.833333) rotate(180.000000) translate(-512.500000, -2118.833333) translate(502.000000, 2094.833333)">
                <path d="M14.35,41.1833333 L10.5,45.0333333 L6.65,41.1833333 C6.18333333,40.7166667 5.48333333,40.7166667 5.01666667,41.1833333 C4.55,41.65 4.55,42.35 5.01666667,42.8166667 L9.68333333,47.4833333 C9.91666667,47.7166667 10.2083333,47.8333333 10.5,47.8333333 C10.7916667,47.8333333 11.0833333,47.7166667 11.3166667,47.4833333 L15.9833333,42.8166667 C16.45,42.35 16.45,41.65 15.9833333,41.1833333 C15.5166667,40.7166667 14.8166667,40.7166667 14.35,41.1833333 Z" id="Shape"></path>
                <path d="M15.9833333,34.7666667 C15.5166667,34.3 14.8166667,34.3 14.35,34.7666667 L10.5,38.6166667 L6.65,34.7666667 C6.18333333,34.3 5.48333333,34.3 5.01666667,34.7666667 C4.55,35.2333333 4.55,35.9333333 5.01666667,36.4 L9.68333333,41.0666667 C9.91666667,41.3 10.2083333,41.4166667 10.5,41.4166667 C10.7916667,41.4166667 11.0833333,41.3 11.3166667,41.0666667 L15.9833333,36.4 C16.45,35.9333333 16.45,35.2333333 15.9833333,34.7666667 Z" id="Shape"></path>
                <path d="M21,21 L21,10.5 C21,4.725 16.275,0 10.5,0 C4.725,0 0,4.725 0,10.5 L0,21 C0,26.775 4.725,31.5 10.5,31.5 C16.275,31.5 21,26.775 21,21 Z M10.5,29.1666667 C6.00833333,29.1666667 2.33333333,25.4916667 2.33333333,21 L2.33333333,10.5 C2.33333333,6.00833333 6.00833333,2.33333333 10.5,2.33333333 C14.9916667,2.33333333 18.6666667,6.00833333 18.6666667,10.5 L18.6666667,21 C18.6666667,25.4916667 14.9916667,29.1666667 10.5,29.1666667 Z" id="Shape"></path>
                <path d="M10.5,18.4166667 C9.85833333,18.4166667 9.33333333,18.9416667 9.33333333,19.5833333 L9.33333333,23.0833333 C9.33333333,23.725 9.85833333,24.25 10.5,24.25 C11.1416667,24.25 11.6666667,23.725 11.6666667,23.0833333 L11.6666667,19.5833333 C11.6666667,18.9416667 11.1416667,18.4166667 10.5,18.4166667 Z" id="Shape"></path>
            </g>
        </g>
    </g>
</svg>