<?xml version="1.0" encoding="UTF-8"?>
<svg width="909px" height="789px" viewBox="0 0 909 789" version="1.1" xmlns="http://www.w3.org/2000/svg" xmlns:xlink="http://www.w3.org/1999/xlink">
    <!-- Generator: Sketch 52.5 (67469) - http://www.bohemiancoding.com/sketch -->
    <title>pie-chart</title>
    <desc>Created with Sketch.</desc>
    <defs>
        <linearGradient x1="49.9909728%" y1="99.9964804%" x2="49.9909728%" y2="0.00175981979%" id="linearGradient-1">
            <stop stop-color="#808080" stop-opacity="0.25" offset="0%"></stop>
            <stop stop-color="#808080" stop-opacity="0.12" offset="54%"></stop>
            <stop stop-color="#808080" stop-opacity="0.1" offset="100%"></stop>
        </linearGradient>
    </defs>
    <g id="Assets" stroke="none" stroke-width="1" fill="none" fill-rule="evenodd" opacity="0.754062">
        <g transform="translate(-6823.000000, -7163.000000)" id="pie-chart">
            <g transform="translate(6823.000000, 7163.000000)">
                <path d="M280.99,31.27 C311.77,3.84 360.1,-1.73 404.08,0.43 C542.24,7.3 666.95,73.99 774.82,149.43 C813.87,176.74 852.32,206.17 877.67,243.78 C929.27,320.35 913.97,426.41 842.21,489.48 C817.8,510.94 788.21,527.4 757.82,541.98 C703.82,567.91 645.51,588.72 584.2,594.65 C540.47,598.87 496.2,595.44 452.74,589.54 C331.3,573.07 212.09,536.65 112.18,474.34 C68.36,447.01 27.05,413.04 8.99,368.83 C-9.07,324.62 2.49,268.59 47.23,242.42 C65.74,231.6 87.87,226.71 109.53,222.12 C141.42,215.36 173.82,208.7 202.59,194.97 C232.31,180.78 267.51,153.34 261.59,121.97 C255.31,88.26 250.24,58.67 280.99,31.27 Z" id="Path" fill="#6C63FF" opacity="0.1"></path>
                <ellipse id="Oval" fill="#6C63FF" opacity="0.1" cx="354.44" cy="761.68" rx="148.72" ry="26.33"></ellipse>
                <ellipse id="Oval" fill="#6C63FF" opacity="0.1" cx="753.81" cy="756.47" rx="75.59" ry="16.65"></ellipse>
                <polygon id="Path" fill="#6C63FF" points="373.48 469.54 367.32 467.71 367.61 472.19 381.4 477.46 378.9 470.04"></polygon>
                <polygon id="Path" fill="#000000" opacity="0.03" points="373.48 469.54 367.32 467.71 367.61 472.19 381.4 477.46 378.9 470.04"></polygon>
                <path d="M569.63,669.75 C622.134613,616.588647 651.5286,544.848485 651.42,470.13 C651.42,469.33 651.42,468.53 651.4203,467.72 L367.6,467.72 L569.63,669.75 Z" id="Path" fill="#6C63FF"></path>
                <path d="M569.63,669.75 C622.134613,616.588647 651.5286,544.848485 651.42,470.13 C651.42,469.33 651.42,468.53 651.4203,467.72 L367.6,467.72 L569.63,669.75 Z" id="Path" fill="#000000" opacity="0.03"></path>
                <path d="M569.63,674.22 C622.134613,621.058647 651.5286,549.318485 651.42,474.6 C651.42,473.79 651.42,472.99 651.4203,472.19 L367.6,472.19 L569.63,674.22 Z" id="Path" fill="#6C63FF"></path>
                <path d="M569.63,674.22 C622.134613,621.058647 651.5286,549.318485 651.42,474.6 C651.42,473.79 651.42,472.99 651.4203,472.19 L367.6,472.19 L569.63,674.22 Z" id="Path" fill="#FFFFFF" opacity="0.15"></path>
                <path d="M827.8,424.5 L823.42,384.97 C823.42,384.97 815.49,349.38 814.36,331.59 C813.23,313.8 804.66,312.5 804.59,312.5 C804.59,312.5 794.02,306.32 793.08,304.26 C792.35,302.68 786.48,299.32 783.82,297.84 L782.52,297.15 C782.52,297.15 779.22,283.4 775.29,285.37 L774.97,284.44 C773.938776,281.4818 773.316359,278.39663 773.12,275.27 C773.12,274.88 773.12,274.5 773.12,274.12 C777.443441,269.911888 780.552519,264.616093 782.12,258.79 C782.652606,256.740083 782.987471,254.643828 783.12,252.53 C783.12,252.14 783.12,251.74 783.12,251.34 C785.05,249.99 785.37,247.13 785.88,244.74 C786.82,240.36 789.28,236.44 790.45,232.12 C790.55,231.75 790.63,231.37 790.7,230.98 C790.7,230.9 790.7,230.82 790.7,230.73 C790.841898,229.937599 790.91882,229.134929 790.93,228.33 C790.93,228.27 790.93,228.22 790.93,228.16 C790.93,224.9 789.93,221.7 787.23,219.96 C786.606493,219.63721 786.028191,219.233744 785.51,218.76 C785.124736,218.286353 784.826765,217.747973 784.63,217.17 L782.63,212.41 C782.413367,211.785309 782.073288,211.210576 781.63,210.72 C780.836686,210.117757 779.927789,209.685435 778.96,209.45 C775.96,208.3 773.96,205.51 772.49,202.73 C771.02,199.95 769.67,196.95 767.38,194.73 C763.66,191.18 758.14,190.43 753.02,189.87 C752.641143,191.470549 752.519621,193.121225 752.66,194.76 C744.53,192.98 735.66,191.27 728.17,194.86 C726.837739,195.410203 725.765035,196.44715 725.17,197.76 C725.120645,197.914128 725.080573,198.071076 725.05,198.23 C725.029946,198.432839 725.029946,198.637161 725.05,198.84 C725.147133,199.276417 725.190787,199.723034 725.18,200.17 C725.004512,200.792507 724.538824,201.291724 723.93,201.51 C721.47,202.6 718.5,201.19 715.93,202.06 C713.58,202.86 712.28,205.33 711.55,207.69 C710.82,210.05 710.35,212.58 708.76,214.47 C707.96,215.47 706.91,216.14 706.08,217.07 C704.559134,218.816503 703.86974,221.13637 704.19,223.43 C704.185214,223.489905 704.185214,223.550095 704.19,223.61 C704.19,223.91 704.3,224.21 704.38,224.51 C704.484548,224.851324 704.61149,225.185382 704.76,225.51 C704.9,225.8 705.05,226.08 705.21,226.36 C706.33,228.25 708,229.89 708.42,232.03 C708.42,232.03 708.42,232.09 708.42,232.11 C708.91,234.86 707.16,237.48 706.72,240.22 C706.72,240.44 706.66,240.65 706.65,240.87 C706.65,240.87 706.65,240.87 706.65,240.93 C706.65,241.15 706.65,241.38 706.65,241.61 C706.8,245.61 710.47,248.26 712.65,251.2 C713.23,251.98 714.31,254.25 715.47,255.1 C715.53,255.53 715.6,255.95 715.69,256.36 C716.299574,259.607165 717.398773,262.74292 718.95,265.66 C722.736407,272.776199 728.927977,278.315651 736.42,281.29 C736.42,281.68 736.5,282.08 736.54,282.48 C736.54,283.22 736.64,283.98 736.64,284.72 C736.64,285.08 736.64,285.44 736.64,285.8 L736.31,283.26 C735.071562,283.001532 733.794873,282.984555 732.55,283.21 C679.051191,232.765275 608.300897,204.666197 534.77,204.66 L534.77,342.75 C526.51,340.27 519.77,339.99 520.27,345.83 C520.73,351.83 527.27,357.91 534.77,362.94 L534.77,494.03 L679.01,494.03 C679.16,497.37 679.46,500.37 680.01,501.1 C681.56,502.98 681.42,525.5 681.42,525.5 C681.42,525.5 682.18,529.63 682.37,530.37 C682.56,531.11 684.82,550.23 684.82,551.16 C684.82,552.09 686.9,558.66 686.71,561.28 C686.52,563.9 690.11,572.51 690.11,572.51 L690.67,588.25 C690.67,588.25 696.52,597.06 696.9,597.62 C697.28,598.18 697.09,609.23 703.5,614.48 C704.512404,615.444957 705.233153,616.675083 705.58,618.03 C706.06,619.93 722.16,646.97 727.14,655.31 L726.54,658.14 L722.54,676.85 L722.35,684.72 C722.35,684.72 719.89,691.46 720.65,694.27 C721.109641,695.723095 721.239458,697.260403 721.03,698.77 C721.03,698.77 718.39,702.88 720.09,705.51 C721.79,708.14 720.84,709.63 718.39,716.37 C717.31,719.37 718.24,721.14 719.62,722.24 C719.62,722.57 719.54,722.92 719.5,723.24 C719.15,726.24 718.76,729.67 718.76,730.58 C718.76,731.49 718.41,735.58 718.39,739.18 C718.39,742.03 718.57,744.59 719.33,745.01 C721.03,745.94 730.47,747.01 730.65,750.25 C730.83,753.49 734.43,758.11 741.97,758.11 C749.51,758.11 762.54,755.49 765.74,755.86 C766.27,755.93 766.58,755.58 766.74,754.96 C766.769144,754.854688 766.792512,754.747862 766.81,754.64 C767.946438,755.92685 769.508502,756.761135 771.21,756.99 C782.53,759.06 796.3,753.99 798.95,748.94 C799.279923,748.305011 799.534965,747.633846 799.71,746.94 C800.97,741.94 798.95,735.65 798.95,735.65 C798.346816,733.112855 798.265166,730.479641 798.71,727.91 C798.939127,726.753332 799.474403,725.679327 800.26,724.8 C802.07,722.9 803.82,717.68 805,713.48 C805.91,710.21 806.49,707.55 806.49,707.55 C806.49,707.55 805.3,705.73 803.49,703.23 C799.86,698.14 793.73,690.23 789.9,688.88 C789.711244,688.507684 789.576554,688.11035 789.5,687.7 C789.32,685.83 785.35,679.7 785.35,679.7 C785.35,679.7 779.88,670.89 779.88,670.15 C779.88,669.41 772.34,657.97 772.34,657.97 C772.34,657.97 769.44,651.68 767.53,648.27 C767.75,647.67 767.97,646.91 768.2,646.01 C770.2,638.13 772.2,620.14 771.77,617.7 C771.2,614.7 770.77,611.52 773.65,607.21 C776.53,602.9 776.3,595.98 776.3,595.98 C776.3,595.98 776.11,574.8 778.18,570.5 C780.25,566.2 786.1,531.73 785.92,530.97 C785.74,530.21 787.42,525.5 787.42,525.5 L787.77,511.91 L787.77,511.08 C787.77,511.08 789.09,499.28 790.77,496.65 C791.122236,495.839465 791.299431,494.963713 791.29,494.08 L822.42,494.08 C822.42,492.2 822.35,490.33 822.3,488.46 L822.42,488.46 C822.319379,475.349988 821.317012,462.262427 819.42,449.29 C822.34,445.75 825.87,443.29 825.98,442.53 C826.477709,440.225468 827.170196,437.967357 828.05,435.78 C829.31,431.99 827.8,424.5 827.8,424.5 Z M764.97,717.63 C764.97,717.63 765.77,717.15 767.07,716.48 C767.15,716.8 767.23,717.14 767.31,717.48 C768.15,721.1 769.16,726.12 768.93,728.48 C768.54,732.41 767.93,738.6 767.93,738.6 C766.871944,740.835754 766.07018,743.184015 765.54,745.6 C764.94,743.13 764.35,741.18 764.35,741.18 C764.35,741.18 751.51,732.58 751.51,728.26 C751.423223,726.093434 751.128537,723.940213 750.63,721.83 C750.52,721.29 750.4,720.77 750.28,720.26 C750.838085,720.938634 751.314672,721.680364 751.7,722.47 C751.7,722.47 755.53,713.18 756.45,709.47 C756.616931,709.016464 756.671822,708.529311 756.61,708.05 C756.329731,706.790359 756.252089,705.494089 756.38,704.21 C757.28,705.21 757.97,706.21 757.74,706.93 C757.22,708.64 764.97,717.63 764.97,717.63 Z" id="Shape" fill="url(#linearGradient-1)" fill-rule="nonzero"></path>
                <path d="M766.01,756.85 C762.85,756.48 750.01,759.08 742.55,759.08 C735.09,759.08 731.55,754.44 731.38,751.26 C731.21,748.08 721.89,746.99 720.21,746.06 C719.47,745.64 719.28,743.06 719.29,740.26 C719.29,736.69 719.65,732.65 719.65,731.71 C719.65,730.77 720.03,727.39 720.38,724.42 C720.68,721.85 720.96,719.62 720.96,719.62 C729.71,709.01 749.64,716.82 749.64,716.82 C749.64,716.82 750.49,719.77 751.18,723.07 C751.670506,725.167864 751.961799,727.307362 752.05,729.46 C752.05,733.75 764.72,742.31 764.72,742.31 C765.577534,745.213626 766.278543,748.161203 766.82,751.14 C767.33,754.29 767.42,757.02 766.01,756.85 Z" id="Path" fill="#53517C"></path>
                <path d="M766.01,756.84 C762.85,756.48 750.01,759.08 742.56,759.08 C735.11,759.08 731.56,754.43 731.39,751.26 C731.22,748.09 721.89,746.98 720.21,746.05 C719.47,745.64 719.28,743.05 719.28963,740.26 C722.85,741.34 727.81,743.11 729.53,744.94 C732.32,747.94 733.06,751.26 734.93,751.64 C736.8,752.02 738.65,754.64 747.58,752.38 C753.16,750.98 761.4,750.97 766.82,751.16 C767.33,754.29 767.42,757.01 766.01,756.84 Z" id="Path" fill="#000000" opacity="0.1"></path>
                <path d="M800.08,725.95 C796.92,729.3 798.79,736.74 798.79,736.74 C798.79,736.74 801.39,744.94 798.79,749.97 C796.19,755 782.59,759.97 771.42,757.97 C769.254247,757.724471 767.351248,756.420841 766.34,754.49 C763.61,749.11 768.25,739.72 768.25,739.72 C768.25,739.72 768.81,733.58 769.19,729.67 C769.41,727.31 768.41,722.32 767.59,718.72 C767.04,716.36 766.59,714.59 766.59,714.59 C766.59,714.59 783.59,690.2 788.75,690.02 C788.996027,690.008079 789.242394,690.035078 789.48,690.1 C793.22,691.02 799.59,699.28 803.3,704.51 C805.07,707.01 806.25,708.82 806.25,708.82 C806.25,708.82 803.26,722.6 800.08,725.95 Z" id="Path" fill="#53517C"></path>
                <path d="M800.08,725.95 C796.92,729.3 798.79,736.74 798.79,736.74 C798.79,736.74 801.39,744.94 798.79,749.96 C796.19,754.98 782.59,760.02 771.42,757.96 C769.256915,757.714882 767.355069,756.415787 766.34,754.49 C769.56,753.81 774.63,752.94 782.59,752.01 C801.76,749.77 796.73,737.12 796.73,737.12 C796.73,737.12 794.5,728.18 797.29,723.71 C799.29,720.54 801.92,710.21 803.29,704.51 C805.07,707 806.24,708.81 806.24,708.81 C806.24,708.81 803.26,722.6 800.08,725.95 Z" id="Path" fill="#000000" opacity="0.1"></path>
                <path d="M751.18,723.07 C748.51,719.42 740.61,712.39 724.68,726.13 C723.122123,725.944531 721.63979,725.355045 720.38,724.42 C720.68,721.85 720.96,719.62 720.96,719.62 C729.71,709.01 749.64,716.82 749.64,716.82 C749.64,716.82 750.49,719.77 751.18,723.07 Z" id="Path" fill="#000000" opacity="0.1"></path>
                <path d="M787.8,513.5 L787.8,514.32 L787.42,527.85 C787.42,527.85 785.74,532.51 785.93,533.25 C786.12,533.99 780.35,568.25 778.29,572.53 C776.23,576.81 776.42,597.86 776.42,597.86 C776.42,597.86 776.6,604.74 773.8,609.03 C771,613.32 771.42,616.5 771.98,619.5 C772.44,621.92 770.43,639.81 768.46,647.64 C768.247208,648.884832 767.795575,650.076735 767.13,651.15 C766.930553,651.407947 766.778215,651.699083 766.68,652.01 C764,658.92 757.08,701.6 757.08,701.6 C757.08,701.6 757.01,702.42 756.94,703.54 C756.82,705.6 756.71,708.7 757.08,709.42 C757.140192,709.896032 757.085324,710.379558 756.92,710.83 C756.02,714.52 752.24,723.76 752.24,723.76 C752.24,723.76 744.98,707.56 724.68,725.06 C724.68,725.06 716.86,724.31 719.29,717.61 C721.72,710.91 722.64,709.42 720.96,706.82 C719.28,704.22 721.89,700.12 721.89,700.12 C722.100191,698.621013 721.973796,697.094026 721.52,695.65 C720.77,692.86 723.2,686.16 723.2,686.16 L723.39,678.34 L727.31,659.74 L728.49,654.14 L729.71,648.35 L736.21,535.5 L736.46,531.3 L738.28,499.61 L782.21,492.35 L783.71,503.88 L786.09,509.54 L787.8,513.5 Z" id="Path" fill="#B3D7F7"></path>
                <path d="M767.01,511.78 L740.1,529.5 L741.1,545.01 C741.1,545.01 743.89,569.96 743.89,572.56 C743.89,575.16 742.58,596.39 742.58,596.39 C742.58,596.39 749.29,606.39 748.58,608.87 C747.87,611.35 754.34,618.17 754.34,618.17 L765.42,639.37 C765.42,639.37 767.29,646.29 768.42,647.59 C768.207208,648.834832 767.755575,650.026735 767.09,651.1 C764.86,653.33 757.04,701.55 757.04,701.55 C757.04,701.55 756.97,702.37 756.9,703.49 C756.33,702.98 755.9,702.67 755.9,702.67 C755.9,702.67 750.5,693.73 750.5,692.81 C750.5,691.89 744.73,684.43 744.73,684.43 L731.57,659.3 L728.49,654.09 L729.71,648.3 L738.28,499.56 L782.21,492.3 L783.71,503.83 L743.71,514.02 L767.01,511.78 Z" id="Path" fill="#000000" opacity="0.1"></path>
                <path d="M785.56,513.5 L736.42,531.25 L738.24,499.56 L782.17,492.3 L783.67,503.83 L786.05,509.49 C785.75,511.78 785.56,513.5 785.56,513.5 Z" id="Path" fill="#000000" opacity="0.1"></path>
                <path d="M757.08,709.37 C757.140192,709.846032 757.085324,710.329558 756.92,710.78 C756.23,709.63 755.81,708.69 755.92,708.26 C756.48,706.58 751.45,702.67 751.45,702.67 C751.45,702.67 746.06,693.73 746.06,692.81 C746.06,691.89 740.28,684.43 740.28,684.43 L727.28,659.69 L728.46,654.09 L729.68,648.3 L736.21,535.5 L736.6,545.03 C736.6,545.03 739.42,569.93 739.42,572.5 C739.42,575.07 738.12,596.33 738.12,596.33 C738.12,596.33 744.82,606.33 744.12,608.81 C743.42,611.29 749.89,618.11 749.89,618.11 L761.06,639.34 C761.06,639.34 763.06,646.98 764.23,647.72 C765.243204,649.012117 766.08985,650.426553 766.75,651.93 C764.07,658.84 757.15,701.52 757.15,701.52 C757.15,701.52 757.08,702.34 757.01,703.46 C756.82,705.55 756.71,708.65 757.08,709.37 Z" id="Path" fill="#000000" opacity="0.1"></path>
                <path d="M794.69,699.13 C794.69,699.13 786.31,714.21 779.98,714.59 C775.71,714.84 770.51,717.2 767.59,718.72 C767.04,716.36 766.59,714.59 766.59,714.59 C766.59,714.59 783.59,690.2 788.75,690.02 C788.996027,690.008079 789.242394,690.035078 789.48,690.1 C789.48,690.1 789.48,690.17 789.48,690.19 C789.66,692.06 794.69,699.13 794.69,699.13 Z" id="Path" fill="#000000" opacity="0.1"></path>
                <path d="M794.69,698.01 C794.69,698.01 786.31,713.09 779.98,713.47 C773.65,713.85 765.28,718.87 765.28,718.87 C765.28,718.87 757.64,709.93 758.19,708.26 C758.74,706.59 753.73,702.67 753.73,702.67 C753.73,702.67 748.33,693.73 748.33,692.81 C748.33,691.89 742.55,684.43 742.55,684.43 L729.34,659.3 C729.34,659.3 707.19,622.05 706.63,619.82 C706.289856,618.472657 705.575726,617.248929 704.57,616.29 C698.25,611.07 698.43,600.09 698.06,599.53 L691.92,590.22 L691.36,574.58 C691.36,574.58 687.82,566.02 688.01,563.41 C688.2,560.8 686.14,554.29 686.14,553.35 C686.14,552.41 683.91,533.44 683.73,532.69 C683.55,531.94 682.79,527.85 682.79,527.85 C682.79,527.85 682.98,505.51 681.5,503.64 C680.68,502.64 680.42,497.37 680.36,492.79 C680.3,488.96 680.36,485.59 680.36,485.59 L790.01,474.23 C790.01,474.23 790.69,480.48 791.08,486.74 C791.43,492.33 791.55,497.95 790.76,499.18 C789.08,501.79 787.76,513.52 787.76,513.52 L738.24,531.39 L738.79,544.98 C738.79,544.98 741.59,569.93 741.59,572.53 C741.59,575.13 740.28,596.36 740.28,596.36 C740.28,596.36 746.98,606.36 746.28,608.84 C745.58,611.32 752.04,618.14 752.04,618.14 L763.21,639.37 C763.21,639.37 765.27,647.01 766.38,647.75 C767.49,648.49 772.54,659.5 772.54,659.5 C772.54,659.5 779.98,670.87 779.98,671.61 C779.98,672.35 785.38,681.11 785.38,681.11 C785.38,681.11 789.29,687.25 789.47,689.11 C789.65,690.97 794.69,698.01 794.69,698.01 Z" id="Path" fill="#B3D7F7"></path>
                <path d="M727.67,604.18 C727.67,604.18 736.79,614.61 741.44,614.8 C746.09,614.99 727.67,604.18 727.67,604.18 Z" id="Path" fill="#000000" opacity="0.1"></path>
                <path d="M762.48,706.58 C762.48,706.58 790.03,692.43 786.48,698.95 C782.93,705.47 772.89,708.95 772.89,708.95 L762.48,706.58 Z" id="Path" fill="#000000" opacity="0.1"></path>
                <path d="M726.55,703.42 C726.55,703.42 743.49,704.53 745.72,707.33 C745.72,707.33 727.67,703.6 726.55,703.42 Z" id="Path" fill="#000000" opacity="0.1"></path>
                <path d="M726.73,709.19 C726.73,709.19 742.19,709.75 747.21,711.98 C747.21,711.98 730.83,711.42 726.73,709.19 Z" id="Path" fill="#000000" opacity="0.1"></path>
                <path d="M574.42,384.5 L569.52,382.26 L561.76,378.72 C561.76,378.72 524.9,364.01 523.76,349.31 C522.62,334.61 566.76,358.99 566.76,358.99 C567.972748,360.930653 569.340545,362.769989 570.85,364.49 C572.26,366.07 573.85,367.41 575.14,367.55 C578.54,367.92 574.42,384.5 574.42,384.5 Z" id="Path" fill="#C37871"></path>
                <path d="M779.42,304.81 L767.32,318.81 L737.91,309.14 L730.65,303.36 L735.29,297.22 C736.88,295.12 737.36,291.92 737.29,288.62 C737.29,287.88 737.29,287.12 737.19,286.38 C736.85439,282.674326 736.157751,279.010276 735.11,275.44 C735.11,275.44 776.99,264.82 774.01,273.57 C773.433843,275.38796 773.196572,277.296301 773.31,279.2 C773.50069,282.309301 774.116413,285.377826 775.14,288.32 C775.991983,290.927712 777.045147,293.465337 778.29,295.91 L779.42,304.81 Z" id="Path" fill="#C37871"></path>
                <path d="M774.02,273.5 C773.443843,275.31796 773.206572,277.226301 773.32,279.13 C763.792001,288.517597 749.593938,291.339914 737.2,286.31 C736.86439,282.604326 736.167751,278.940276 735.12,275.37 C735.12,275.37 777,264.78 774.02,273.5 Z" id="Path" fill="#000000" opacity="0.1"></path>
                <path d="M783.33,254.17 C783.33,254.97 783.33,255.77 783.24,256.56 C782.176146,271.506699 771.318612,283.930373 756.649068,286.986528 C741.979524,290.042683 727.064079,282.98838 720.12,269.71 C718.595277,266.807279 717.513307,263.692823 716.91,260.47 C716.49897,258.395319 716.294638,256.284998 716.3,254.17 C716.300786,252.330408 716.45465,250.494072 716.76,248.68 C719.574904,231.693426 734.808277,219.606937 751.989986,220.727764 C769.171694,221.848591 782.705756,235.811687 783.29,253.02 C783.32,253.4 783.33,253.79 783.33,254.17 Z" id="Path" fill="#C37871"></path>
                <path d="M779.42,304.81 L767.32,318.81 L737.91,309.14 L730.65,303.36 L735.29,297.22 C736.88,295.12 737.36,291.92 737.29,288.62 L738.63,298.89 L738.95,299.21 L740.87,301.13 L743.29,301.13 L747.95,307.46 C747.95,307.46 754.65,302.07 755.21,303.36 C755.77,304.65 764.89,301.13 764.89,301.13 L765.24,301.13 C773.5,300.78 774.94,288.48 774.94,288.48 C774.94,288.48 775.07,288.37 775.14,288.33 C775.991983,290.937712 777.045147,293.475337 778.29,295.92 L779.42,304.81 Z" id="Path" fill="#000000" opacity="0.1"></path>
                <path d="M791.1,486.74 C790.89,487.55 790.66,488.34 790.41,489.13 C783.15,512.21 730.83,512.77 730.83,512.77 L729.34,498.44 L724.34,508.12 C724.34,508.12 691.96,499.18 680.39,492.79 C680.33,488.96 680.39,485.59 680.39,485.59 L790.04,474.23 C790.04,474.23 790.71,480.5 791.1,486.74 Z" id="Path" fill="#000000" opacity="0.1"></path>
                <path d="M574.42,384.5 L569.52,382.26 C570.65,376.94 570.85,366.38 570.88,364.49 C572.29,366.07 573.88,367.41 575.17,367.55 C578.54,367.92 574.42,384.5 574.42,384.5 Z" id="Path" fill="#000000" opacity="0.1"></path>
                <path d="M789.47,434.39 C789.47,434.39 797.67,463.81 790.41,486.9 C783.15,509.99 730.83,510.5 730.83,510.5 L729.34,496.17 L724.34,505.86 C724.34,505.86 685.25,495.05 677.62,488.72 C669.99,482.39 673.89,472.9 673.89,472.9 C673.89,472.9 676.5,460.62 678.73,458 C680.96,455.38 681.34,446.27 680.59,445 C679.84,443.73 683.2,431.4 684.32,429.54 C685.44,427.68 684.13,377.97 684.13,377.97 C684.13,377.97 667.56,385.41 666.63,387.65 C665.7,389.89 646.15,400.65 646.15,400.65 C646.15,400.65 627.72,402.89 624.37,402.89 C621.02,402.89 602.58,400.65 602.58,400.65 C602.58,400.65 597.58,400.46 596.07,399.35 C594.555091,398.447292 592.923098,397.75748 591.22,397.3 C591.22,397.3 586.02,396.18 584.52,394.14 C583.02,392.1 570.52,385.2 570.52,385.2 C572.94,383.71 573.13,364.2 573.13,364.2 L596.77,369.97 C596.77,369.97 598.27,366.81 600.5,368.11 C602.73,369.41 616.33,370.5 616.33,370.5 C616.33,370.5 627.69,368.27 628.25,369.19 C628.81,370.11 630.48,369.94 630.48,369.94 C630.48,369.94 632.72,369.75 632.72,369.02 C632.72,368.29 634.72,369.19 634.72,369.19 L638.45,369.75 C638.45,369.75 637.89,364.92 639.57,364.55 C640.5482,364.309848 641.281173,363.497635 641.42,362.5 C641.42,362.5 646.42,355.8 648.87,355.8 C651.32,355.8 652.97,349.1 652.97,349.1 L661.91,339.98 C661.91,339.98 660.79,335.32 661.91,335.13 C663.03,334.94 663.2,332.9 663.2,332.9 C663.2,332.9 663.58,328.81 665.63,327.9 C667.68,326.99 668.79,321.58 668.79,321.58 C668.79,321.58 678.28,310.97 679.03,307.24 C679.78,303.51 683.69,302.77 683.69,302.77 C685.803596,301.400028 688.127871,300.386536 690.57,299.77 C693.74,299.21 702.12,298.27 702.12,298.27 C702.12,298.27 717.38,296.98 718.88,295.27 C720.38,293.56 722.97,293.77 724.64,293.77 C725.001698,293.744095 725.348548,293.615761 725.64,293.4 C727.15,292.46 728.95,289.84 730.75,288.19 C732.98,286.14 736.89,287.07 736.89,287.07 L738.57,299.92 L738.88,300.23 L740.8,302.15 L743.22,302.15 L747.88,308.49 C747.88,308.49 754.58,303.09 755.14,304.39 C755.7,305.69 764.82,302.15 764.82,302.15 L765.17,302.15 C773.43,301.8 774.87,289.51 774.87,289.51 C778.97,285.96 782.51,300.87 782.51,300.87 L783.8,301.56 C786.42,303.02 792.22,306.36 792.93,307.94 C793.86,309.94 804.29,316.12 804.29,316.12 L789.47,434.39 Z" id="Path" fill="#53517C"></path>
                <path d="M794.32,479.07 L788.82,483.5 L782.59,488.5 C782.59,488.5 771.04,515.5 755.22,507.87 C739.4,500.24 776.42,472 776.42,472 L781.54,469.52 L787.21,466.78 L794.32,479.07 Z" id="Path" fill="#C37871"></path>
                <path d="M737.84,302.5 C732.09,304.89 724.84,310.57 724.84,310.57 L724.57,295.68 C726.08,294.73 727.88,292.12 729.68,290.46 C731.91,288.46 735.82,289.35 735.82,289.35 L737.5,302.19 L737.84,302.5 Z" id="Path" fill="#000000" opacity="0.1"></path>
                <path d="M738.96,300.28 C733.21,302.67 725.96,308.35 725.96,308.35 L725.72,293.5 C727.23,292.56 729.03,289.94 730.83,288.29 C733.06,286.24 736.97,287.17 736.97,287.17 L738.65,300.02 L738.96,300.28 Z" id="Path" fill="#E6EAED"></path>
                <path d="M783.88,304.95 C781.02,312.61 777.46,321.09 776.82,317.84 C776.05,313.99 769.34,308.55 765.25,305.54 C773.51,305.2 774.95,292.9 774.95,292.9 C779.05,289.36 782.59,304.26 782.59,304.26 L783.88,304.95 Z" id="Path" fill="#000000" opacity="0.1"></path>
                <path d="M783.88,301.6 C781.02,309.26 777.46,317.74 776.82,314.49 C776.05,310.64 769.34,305.2 765.25,302.19 C773.51,301.84 774.95,289.55 774.95,289.55 C779.05,286 782.59,300.91 782.59,300.91 L783.88,301.6 Z" id="Path" fill="#E6EAED"></path>
                <path d="M745.91,595.62 C745.91,595.62 767.13,592.62 766.2,597.11 C765.27,601.6 745.91,595.62 745.91,595.62 Z" id="Path" fill="#000000" opacity="0.1"></path>
                <path d="M711.65,522.5 C711.65,522.5 720.03,518.03 727.48,519.9 L711.65,522.5 Z" id="Path" fill="#000000" opacity="0.1"></path>
                <path d="M698.06,510.35 C698.06,510.35 711.47,508.3 716.49,510.54 L698.06,510.35 Z" id="Path" fill="#000000" opacity="0.1"></path>
                <path d="M756.71,541.07 C756.71,541.07 744.98,553.54 745.71,556.89 L756.71,541.07 Z" id="Path" fill="#000000" opacity="0.1"></path>
                <path d="M642.21,373.7 C642.21,373.7 640.35,380.4 651.71,383.19 L642.21,373.7 Z" id="Path" fill="#000000" opacity="0.1"></path>
                <path d="M638.86,385.24 C638.86,385.24 652.86,397.71 646.31,398.09 C639.76,398.47 638.86,385.24 638.86,385.24 Z" id="Path" fill="#000000" opacity="0.1"></path>
                <path d="M669.95,335.16 C669.95,335.16 687.08,347.07 685.95,349.87 C684.82,352.67 669.95,335.16 669.95,335.16 Z" id="Path" fill="#000000" opacity="0.1"></path>
                <path d="M794.32,479.07 L788.82,483.5 C787.67,479.56 785.29,472.96 781.57,469.5 L787.24,466.76 L794.32,479.07 Z" id="Path" fill="#000000" opacity="0.1"></path>
                <path d="M796.92,320.82 L804.37,316.17 C804.37,316.17 812.93,317.47 814.05,335.17 C815.17,352.87 822.99,388.23 822.99,388.23 L827.27,427.5 C827.27,427.5 828.76,434.95 827.46,438.67 C826.602746,440.841956 825.93362,443.083527 825.46,445.37 C825.27,446.68 815.03,453.01 815.22,461.2 C815.41,469.39 802.22,477.02 802.22,477.02 C802.22,477.02 793.65,482.02 790.86,485.59 C790.86,485.59 787.69,470.69 780.81,466.97 C773.93,463.25 795.33,433.65 795.33,433.65 L796.92,320.82 Z" id="Path" fill="#53517C"></path>
                <path d="M784.04,434.15 C784.04,434.15 761.7,443.46 763.56,446.44 C765.42,449.42 784.04,434.15 784.04,434.15 Z" id="Path" fill="#000000" opacity="0.1"></path>
                <path d="M784.04,446.06 C784.04,446.06 774.75,450.17 775.52,451.48 C776.29,452.79 784.04,446.06 784.04,446.06 Z" id="Path" fill="#000000" opacity="0.1"></path>
                <path d="M778.83,453.88 C778.83,453.88 769.54,457.99 770.31,459.3 C771.08,460.61 778.83,453.88 778.83,453.88 Z" id="Path" fill="#000000" opacity="0.1"></path>
                <path d="M538.1,214.58 L538.1,496.58 L821.93,496.58 C820.64,340.83 694.13,214.9 538.1,214.58 Z" id="Path" fill="#6C63FF"></path>
                <path d="M538.1,214.58 L538.1,496.58 L821.93,496.58 C820.64,340.83 694.13,214.9 538.1,214.58 Z" id="Path" fill="#000000" opacity="0.1"></path>
                <path d="M538.1,209 L538.1,491 L821.93,491 C820.64,335.24 694.13,209.31 538.1,209 Z" id="Path" fill="#6C63FF"></path>
                <path d="M756.76,498.89 C756.734943,497.347044 757.196822,495.835439 758.08,494.57 C758.965677,493.708219 760.062316,493.094377 761.26,492.79 C762.32,492.44 763.39,492.11 764.46,491.79 C765.291801,491.512099 766.163004,491.370275 767.04,491.37 C768.82,491.44 770.36,492.54 771.79,493.59 C772.072209,493.766403 772.305937,494.010442 772.47,494.3 C772.79,495.04 772.1,495.81 771.47,496.3 C769.266914,498.259553 766.886705,500.010396 764.36,501.53 C762.58,502.53 760.22,503.66 758.13,503.68 C755.56,503.75 756.59,500.75 756.76,498.89 Z" id="Path" fill="#C37871"></path>
                <path d="M783.33,254.17 C783.33,254.97 783.33,255.77 783.24,256.56 C783.098221,256.654684 782.951332,256.741483 782.8,256.82 C782.233636,257.024525 781.682288,257.268455 781.15,257.55 C779.52,258.66 779.89,261.08 780.04,263.04 C780.273205,265.876707 779.682928,268.720452 778.34,271.23 C777.025094,271.094051 775.964062,270.094469 775.75,268.79 C775.571586,267.521634 775.517997,266.238827 775.59,264.96 C775.43,261.54 773.59,258.49 772.39,255.27 C770.17,249.1 770.66,242.27 769.18,235.9 C768.75,234.02 768.05,232.02 766.45,230.9 C764.33,229.44 761.39,230.08 759.11,231.27 C756.83,232.46 754.79,234.2 752.32,234.95 C748.51,236.1 744.46,234.71 740.67,233.53 C736.88,232.35 732.59,231.35 729.05,233.16 C725.33,235.07 723.66,239.42 722.52,243.46 C722.145598,244.567357 721.966269,245.731303 721.99,246.9 C722.06,247.9 722.45,248.95 722.42,250 C722.42,252.24 720.51,254 719.77,256.12 C719.31,257.43 719.42,260.66 717.52,260.64 C717.303316,260.632462 717.092638,260.566841 716.91,260.45 C716.49897,258.375319 716.294638,256.264998 716.3,254.15 C716.300786,252.310408 716.45465,250.474072 716.76,248.66 C719.574904,231.673426 734.808277,219.586937 751.989986,220.707764 C769.171694,221.828591 782.705756,235.791687 783.29,253 C783.32,253.4 783.33,253.79 783.33,254.17 Z" id="Path" fill="#000000" opacity="0.1"></path>
                <path d="M707.97,245.8 C707.85,242.57 710.3,239.55 709.74,236.37 C709.3,233.88 707.14,232.07 706.09,229.77 C704.856145,226.949696 705.349997,223.671609 707.36,221.34 C708.18,220.42 709.21,219.7 710,218.76 C711.57,216.88 712,214.35 712.75,212.01 C713.5,209.67 714.75,207.22 717.08,206.42 C719.59,205.56 722.53,206.96 724.95,205.87 C725.54645,205.650436 726.003032,205.160446 726.18,204.55 C726.200789,204.102723 726.157005,203.654785 726.05,203.22 C725.88,201.44 727.57,200.05 729.19,199.27 C736.59,195.7 745.33,197.4 753.35,199.17 C753.216113,197.54164 753.334168,195.902372 753.7,194.31 C758.76,194.87 764.21,195.61 767.87,199.13 C770.14,201.32 771.41,204.3 772.87,207.06 C774.33,209.82 776.33,212.59 779.26,213.74 C780.21792,213.972197 781.117,214.401304 781.9,215 C782.340638,215.488739 782.680466,216.059651 782.9,216.68 L784.82,221.41 C785.018863,221.987042 785.31664,222.52507 785.7,223 C786.210547,223.466782 786.778446,223.866664 787.39,224.19 C791.11,226.62 791.66,231.97 790.5,236.27 C789.34,240.57 786.92,244.46 786,248.82 C785.46,251.39 785.15,254.53 782.8,255.7 C782.234192,255.909787 781.682974,256.157 781.15,256.44 C779.52,257.54 779.88,259.96 780.04,261.92 C780.273983,264.755594 779.687322,267.598643 778.35,270.11 C777.033573,269.977378 775.970831,268.976185 775.76,267.67 C775.577797,266.402004 775.520856,265.119152 775.59,263.84 C775.43,260.42 773.59,257.37 772.39,254.15 C770.17,247.98 770.66,241.15 769.19,234.78 C768.75,232.89 768.04,230.9 766.44,229.78 C764.32,228.31 761.38,228.94 759.1,230.15 C756.82,231.36 754.79,233.07 752.32,233.82 C748.51,234.96 744.46,233.59 740.66,232.39 C736.86,231.19 732.59,230.22 729.05,232.03 C725.33,233.94 723.67,238.3 722.53,242.33 C722.149982,243.436449 721.963914,244.60022 721.98,245.77 C722.06,246.77 722.44,247.83 722.42,248.87 C722.42,251.12 720.51,252.87 719.77,255 C719.31,256.31 719.42,259.53 717.52,259.52 C716.08,259.52 714.62,256.26 713.91,255.31 C711.74,252.42 708.12,249.75 707.97,245.8 Z" id="Path" fill="#4B3E3C"></path>
                <g id="Group" opacity="0.1" transform="translate(705.000000, 196.000000)" fill="#000000">
                    <path d="M4.74,38.13 C4.3,35.64 2.14,33.84 1.09,31.54 C0.795355796,30.8852559 0.596645157,30.1914526 0.5,29.48 C0.28726506,30.9370217 0.491836718,32.4245004 1.09,33.77 C2.09,36.05 4.24,37.84 4.72,40.28 C4.84672194,39.5694824 4.85348222,38.8427521 4.74,38.13 Z" id="Path"></path>
                    <path d="M21.18,6.31 C21.1852804,6.25679737 21.1852804,6.20320263 21.18,6.15 C21.1247988,6.3023878 21.0846082,6.45980122 21.06,6.62 C21.1148023,6.52302364 21.1552245,6.41859965 21.18,6.31 Z" id="Path"></path>
                    <path d="M48.35,0.94 C48.3450136,0.863414413 48.3450136,0.786585587 48.35,0.71 C48.35,0.78 48.35,0.86 48.35,0.93 L48.35,0.94 Z" id="Path"></path>
                    <path d="M85.5,38.03 C84.35,42.33 81.92,46.23 81,50.58 C80.46,53.16 80.15,56.29 77.8,57.47 C77.2361011,57.6806204 76.6851408,57.9243786 76.15,58.2 C74.8,59.12 74.82,60.94 74.96,62.66 C75.0006982,61.7781637 75.438151,60.9620753 76.15,60.44 C76.6829736,60.1570003 77.2341918,59.9097873 77.8,59.7 C80.15,58.53 80.46,55.39 81,52.82 C81.92,48.46 84.35,44.57 85.5,40.27 C85.9620606,38.5881184 86.1311962,36.8392565 86,35.1 C85.9261302,36.0902521 85.7587173,37.0712919 85.5,38.03 Z" id="Path"></path>
                    <path d="M73.35,71.88 C72.033573,71.7473783 70.9708308,70.7461849 70.76,69.44 C70.5780415,68.1686255 70.5211027,66.8824801 70.59,65.6 C70.43,62.19 68.59,59.13 67.39,55.92 C65.17,49.75 65.66,42.92 64.19,36.55 C63.75,34.66 63.04,32.67 61.44,31.55 C59.32,30.09 56.38,30.72 54.1,31.92 C51.82,33.12 49.79,34.85 47.32,35.59 C43.51,36.74 39.46,35.36 35.66,34.17 C31.86,32.98 27.59,31.99 24.05,33.81 C20.33,35.72 18.67,40.08 17.53,44.1 C17.1498187,45.2098607 16.9637623,46.376942 16.98,47.55 C16.98,47.78 17.04,48.02 17.08,48.25 C17.1885946,47.6042833 17.3389094,46.9662805 17.53,46.34 C18.67,42.34 20.33,37.95 24.05,36.04 C27.59,34.23 31.87,35.21 35.66,36.4 C39.45,37.59 43.51,38.97 47.32,37.83 C49.79,37.08 51.82,35.36 54.1,34.16 C56.38,32.96 59.32,32.32 61.44,33.79 C63.04,34.88 63.75,36.87 64.19,38.79 C65.66,45.18 65.19,51.99 67.39,58.16 C68.54,61.38 70.39,64.43 70.59,67.85 C70.5208556,69.1291521 70.5777968,70.4120043 70.76,71.68 C70.9708308,72.9861849 72.033573,73.9873783 73.35,74.12 C74.6749894,71.6292263 75.2645733,68.813096 75.05,66 C74.8935005,68.0560111 74.3147874,70.0576775 73.35,71.88 Z" id="Path"></path>
                    <path d="M14.77,56.79 C14.31,58.1 14.42,61.32 12.52,61.31 C11.08,61.31 9.62,58.06 8.91,57.11 C6.91,54.4 3.65,51.91 3.06,48.42 C2.98529188,48.8759898 2.95514974,49.3381694 2.97,49.8 C3.12,53.75 6.74,56.42 8.91,59.34 C9.62,60.34 11.08,63.54 12.52,63.55 C14.42,63.55 14.31,60.34 14.77,59.03 C15.51,56.91 17.37,55.15 17.42,52.9 C17.4184729,52.4695974 17.3715465,52.0405567 17.28,51.62 C16.85,53.43 15.42,54.98 14.77,56.79 Z" id="Path"></path>
                </g>
                <rect id="Rectangle" fill="#6C63FF" x="60.75" y="446.6" width="3.36" height="3.42"></rect>
                <rect id="Rectangle" fill="#000000" opacity="0.25" x="60.75" y="446.6" width="3.36" height="3.42"></rect>
                <rect id="Rectangle" fill="#6C63FF" x="345.45" y="164.94" width="3.28" height="3.81"></rect>
                <rect id="Rectangle" fill="#000000" opacity="0.25" x="345.45" y="164.94" width="3.28" height="3.81"></rect>
                <path d="M348.76,450.03 L348.76,168.03 L348.17,168.03 C191.86,168.03 65.02,294.11 63.75,450.12 L348.76,450.03 Z" id="Path" fill="#FFFFFF" opacity="0.2"></path>
                <g id="Path" transform="translate(60.000000, 165.000000)">
                    <path d="M288.76,285.03 L288.76,3.03 L288.17,3.03 C131.86,3.03 5.02,129.11 3.75,285.12 L288.76,285.03 Z" fill="#6C63FF"></path>
                    <path d="M288.76,285.03 L288.76,3.03 L288.17,3.03 C131.86,3.03 5.02,129.11 3.75,285.12 L288.76,285.03 Z" fill="#000000" opacity="0.25"></path>
                    <path d="M285.76,282.03 L285.76,0.03 L285.17,0.03 C128.86,0.03 2.02,126.11 0.75,282.12 L285.76,282.03 Z" fill="#6C63FF"></path>
                    <path d="M285.76,282.03 L285.76,0.03 L285.17,0.03 C128.86,0.03 2.02,126.11 0.75,282.12 L285.76,282.03 Z" fill="#000000" opacity="0.15"></path>
                </g>
                <g id="Path-Copy" transform="translate(361.206375, 682.011022) rotate(-135.000000) translate(-361.206375, -682.011022) translate(218.206375, 540.511022)" fill="#6C63FF">
                    <path d="M285.76,282.03 L285.76,0.03 L285.17,0.03 C128.86,0.03 2.02,126.11 0.75,282.12 L285.76,282.03 Z" id="Path"></path>
                </g>
                <polygon id="Path" fill="#3ACC6C" points="343.99 475.06 350.86 470.36 351.86 472.36 344.02 478.09"></polygon>
                <polygon id="Path" fill="#000000" opacity="0.1" points="343.99 475.06 350.86 470.36 351.86 472.36 344.02 478.09"></polygon>
                <polygon id="Path" fill="#FF748E" points="339.11 468.03 346.36 465.36 347.36 467.36 334.99 471.53"></polygon>
                <polygon id="Path" fill="#000000" opacity="0.1" points="339.11 468.03 346.36 465.36 347.36 467.36 334.99 471.53"></polygon>
                <polygon id="Path" fill="#5E5A6B" points="338.2 459.28 345.86 458.86 345.86 460.86 332.99 462.21 334.14 459.62"></polygon>
                <polygon id="Path" fill="#000000" opacity="0.1" points="338.2 459.28 345.86 458.86 345.86 460.86 332.99 462.21 334.14 459.62"></polygon>
                <path d="M345.86,458.86 L68.51,522.02 C64.1723929,502.061293 61.9898891,481.69461 62,461.27 C62,460.46 62,459.66 61.999965,458.86 L345.86,458.86 Z" id="Path" fill="#000000" opacity="0.1"></path>
                <path d="M345.86,460.86 L68.51,524.02 C64.1723929,504.061293 61.9898891,483.69461 62,463.27 C62,462.46 62,461.66 61.999965,460.86 L345.86,460.86 Z" id="Path" fill="#5E5A6B"></path>
                <path d="M69.01,528.5 C74.852926,555.363896 84.5961816,581.227995 97.93,605.27 L346.36,465.36 L69.01,528.5 Z" id="Path" fill="#FF748E"></path>
                <path d="M69.01,528.5 C74.852926,555.363896 84.5961816,581.227995 97.93,605.27 L346.36,465.36 L69.01,528.5 Z" id="Path" fill="#000000" opacity="0.1"></path>
                <path d="M70.01,530.5 C75.852926,557.363896 85.5961816,583.227995 98.93,607.27 L347.36,467.36 L70.01,530.5 Z" id="Path" fill="#FF748E"></path>
                <path d="M350.31,470.38 L102.31,610.07 L102.43,610.29 C114.990255,633.00745 130.601912,653.898135 148.83,672.38 L350.83,470.38 L350.31,470.38 Z" id="Path" fill="#3ACC6C"></path>
                <path d="M350.31,470.38 L102.31,610.07 L102.43,610.29 C114.990255,633.00745 130.601912,653.898135 148.83,672.38 L350.83,470.38 L350.31,470.38 Z" id="Path" fill="#000000" opacity="0.1"></path>
                <path d="M351.31,472.38 L103.31,612.07 L103.43,612.29 C115.990255,635.00745 131.601912,655.898135 149.83,674.38 L351.83,472.38 L351.31,472.38 Z" id="Path" fill="#3ACC6C"></path>
            </g>
        </g>
    </g>
</svg>